# xmcd CD database file
#
# Track frame offsets:
#	150
#	18593
#	44016
#	66227
#	80668
#	97839
#	121548
#	140125
#	158282
#	181393
#	199242
#	216827
#	235490
#	251243
#	273056
#	285769
#	302826
#	317171
#
# Disc length: 4478 seconds
#
# Revision: 0
# Processed by: cddbd v1.5.2PL0 Copyright (c) Steve Scherf et al.
# Submitted via: CDex 1.50Beta6
#
DISCID=fe117c12
DTITLE=WORLD MUSIC - mix
DYEAR=1900
DGENRE=New Age
TTITLE0=andrea bocelli - time to say googbye
TTITLE1=emma sapplin - spente le stell
TTITLE2=pavarotti and spice girls - viva forever
TTITLE3=secret garden - nocturne
TTITLE4=era - anae volare mezzo
TTITLE5=dolce pontes - cancao de mar
TTITLE6=sacred spirit - yeha noha
TTITLE7=ronan herdiman - far away
TTITLE8=oliver shanti - onon mweng
TTITLE9=adiemus 
TTITLE10=mike oldfield - sentinal
TTITLE11=loona - hijo de la luna
TTITLE12=enya - boadicea
TTITLE13=vangelis 1492
TTITLE14=the last of the mohicans - the kiss
TTITLE15=ara - ameno
TTITLE16=michael nyman - theme from the piano
TTITLE17=andrea bocelly - con te partiro
EXTD=
EXTT0=
EXTT1=
EXTT2=
EXTT3=
EXTT4=
EXTT5=
EXTT6=
EXTT7=
EXTT8=
EXTT9=
EXTT10=
EXTT11=
EXTT12=
EXTT13=
EXTT14=
EXTT15=
EXTT16=
EXTT17=
PLAYORDER=
